<?xml version="1.0" encoding="UTF-8"?>
<svg width="53px" height="31px" viewBox="0 0 53 31" version="1.1" xmlns="http://www.w3.org/2000/svg" xmlns:xlink="http://www.w3.org/1999/xlink">
    <title>signature (2)</title>
    <defs>
        <filter x="-5.0%" y="-8.2%" width="110.2%" height="112.8%" filterUnits="objectBoundingBox" id="filter-1">
            <feOffset dx="0" dy="2" in="SourceAlpha" result="shadowOffsetOuter1"></feOffset>
            <feGaussianBlur stdDeviation="2" in="shadowOffsetOuter1" result="shadowBlurOuter1"></feGaussianBlur>
            <feColorMatrix values="0 0 0 0 0   0 0 0 0 0   0 0 0 0 0  0 0 0 0.09 0" type="matrix" in="shadowBlurOuter1" result="shadowMatrixOuter1"></feColorMatrix>
            <feMerge>
                <feMergeNode in="shadowMatrixOuter1"></feMergeNode>
                <feMergeNode in="SourceGraphic"></feMergeNode>
            </feMerge>
        </filter>
    </defs>
    <g id="Page-1" stroke="none" stroke-width="1" fill="none" fill-rule="evenodd">
        <g id="Search_Results" transform="translate(-135.000000, -692.000000)" fill="#008CFF" fill-rule="nonzero">
            <g id="Post-1" filter="url(#filter-1)" transform="translate(6.000000, 640.000000)">
                <g id="Group-6" transform="translate(1.000000, 0.000000)">
                    <g id="signature-(2)" transform="translate(137.000000, 61.000000)">
                        <path d="M0.868714291,7.27223349 C1.31231611,7.24723628 1.6511719,6.87557962 1.62550832,6.44213739 C1.53580646,4.92391049 1.81593369,3.87332012 2.37490094,3.63207344 C2.74287966,3.4730503 3.23523423,3.66681799 3.45357579,3.86860366 C4.01310618,5.03003073 2.40378252,11.0339209 2.40201262,11.0419388 C2.30643791,11.4589521 2.56918791,11.8741573 2.9938035,11.9768189 C3.42010855,12.0797162 3.8494707,11.8304515 3.96354893,11.4194911 C3.96580153,11.4113945 5.69411088,4.6379361 6.89096692,4.61105231 C6.99973545,4.61403939 7.04004094,4.64320281 7.08919595,4.70766103 C7.54212997,5.3001264 7.41155947,7.41875803 6.77881949,9.74530673 C6.66707431,10.1560314 6.90963134,10.5790188 7.32644327,10.7004675 C7.74341611,10.8219948 8.18323677,10.5975702 8.32008238,10.1943133 C9.0715667,7.97726492 10.0038224,5.93653341 10.4728464,5.45694853 C10.5548251,5.48249599 10.649193,5.53767852 10.7536172,5.654568 C11.1703487,6.12110402 11.5661632,7.42025158 11.3100905,9.54650815 C11.2582002,9.97767075 11.5738059,10.3683504 12.0150747,10.4191309 C12.4565848,10.4699114 12.8562609,10.1615339 12.9081512,9.73029268 C13.1815206,7.45947676 12.8380792,5.59718446 11.9658393,4.62072104 C11.5333395,4.13665553 10.9792798,3.87497088 10.3634343,3.86388721 C9.83914104,3.85476873 9.3731741,4.17973249 8.86392501,4.95999138 C8.7754299,4.49604941 8.62136797,4.08461731 8.37848914,3.76680684 C8.02716359,3.30718829 7.52845346,3.05572263 6.93617987,3.03945086 C6.29925648,3.01995618 5.70143184,3.3580474 5.13240833,4.07376946 C5.0578311,3.35954094 4.84978715,3.013982 4.62243519,2.78688469 C3.981972,2.14709755 2.78101301,1.73802368 1.72486418,2.19394767 C0.852061122,2.57071383 -0.152277842,3.62932218 0.0193222067,6.53269333 C0.0449053364,6.96621416 0.426238778,7.29903868 0.868714291,7.27223349 L0.868714291,7.27223349 Z" id="XMLID_226_"></path>
                        <circle id="XMLID_227_" cx="15" cy="6" r="1"></circle>
                        <path d="M14.1937329,10.9655221 C13.9054918,11.2959251 13.9432415,11.7942132 14.2779499,12.0786787 C15.0439801,12.7297762 16.0032375,13.2449554 16.9468992,12.8773762 C19.3107321,11.9572047 18.9372343,6.3227523 19.7171808,2.94034441 C19.9998234,1.71486977 20.2875847,1.58037223 20.2857452,1.58037223 C20.2881445,1.58092475 20.6670808,1.56908517 21.5930673,2.63480452 C21.8805886,2.96576003 22.3855703,3.00396238 22.7208385,2.72012837 C23.0561068,2.43637329 23.0948961,1.93808517 22.8072949,1.6072086 C22.0853325,0.776307428 20.9894725,-0.287280798 19.8161137,0.0716950278 C16.9886478,0.935431277 18.0036499,10.7688273 16.3600199,11.4089535 C16.2282959,11.4602583 15.8760724,11.3537811 15.3218241,10.8825662 C14.9869558,10.597785 14.481974,10.6351191 14.1937329,10.9655221 Z" id="XMLID_228_"></path>
                        <path d="M21.577198,10.9293009 C21.5628493,10.1280125 21.8985458,8.71664021 22.260338,6.63380054 C22.3312931,6.2249018 22.0406925,5.83859042 21.6111776,5.77097843 C21.181032,5.70374164 20.7757207,5.97996778 20.7046868,6.38886652 C20.3253923,8.5724113 19.9829945,9.96847518 20.0006545,10.9548899 C20.0068828,11.3045813 20.0259618,12.3686635 21.1539114,12.8475755 C23.1802315,13.7076962 25.0472179,10.7315677 26.0063733,8.82852643 C26.3587836,9.60812801 26.9302087,10.0785604 27.7024367,10.2010274 C28.7160698,10.3621406 29.6928062,9.74635364 29.91868,8.46802918 C31.1662284,9.39403587 32.4607648,10.2708907 33.7832891,11.0852362 C34.1488655,11.3105095 34.6369578,11.2107799 34.873396,10.8628145 C35.1099918,10.5148491 35.0053725,10.050345 34.6397172,9.8252218 C32.8836572,8.74373004 31.1782119,7.54877619 29.5708423,6.27345337 C28.9995749,5.82058057 28.1457484,6.30639639 28.2933351,6.99902538 C28.4518803,7.74290741 28.4462039,8.79715927 27.9615805,8.72054235 C27.3970933,8.6310934 27.0856004,7.48394071 27.1864355,5.86620553 C27.2516353,4.81285417 25.8490106,4.72528125 25.6359088,5.57572159 C25.2276804,7.20403756 23.4571929,10.7957278 22.1079422,11.4295997 C21.7008964,11.6207293 21.5849243,11.3579355 21.577198,10.9293009 L21.577198,10.9293009 Z" id="XMLID_229_"></path>
                    </g>
                </g>
            </g>
        </g>
    </g>
</svg>